<svg width="404" height="472" viewBox="0 0 404 472" fill="none" xmlns="http://www.w3.org/2000/svg">
  <g clip-path="url(#clip0_122_6381)">
    <path
      d="M260.074 25.2522C220.65 -14.1221 102.382 -11.4677 121.622 100.785C134.23 174.346 51.8792 290.286 51.0008 340.424C49.8226 407.677 106.935 439.581 144.955 441.878C173.593 443.609 257.428 441.091 262.924 371.619C266.788 322.779 345.83 350.274 362.699 309.419C398.266 223.282 351.845 162.415 316.237 145.308C280.629 128.202 299.499 64.6266 260.074 25.2522Z"
      fill="url(#paint0_linear_122_6381)" />
    <g clip-path="url(#clip1_122_6381)">
      <path
        d="M30.4878 239.837C31.7665 241.986 33.4978 243.827 35.5599 245.231C37.6219 246.634 39.9645 247.565 42.4227 247.958C44.8809 248.351 47.3948 248.197 49.7874 247.506C52.18 246.816 54.3931 245.606 56.2708 243.961L108.754 274.26L106.798 242.674L57.2589 218.745C54.3051 215.753 50.3635 213.955 46.181 213.693C41.9986 213.431 37.8658 214.722 34.566 217.322C31.2661 219.922 29.0283 223.65 28.2767 227.799C27.525 231.949 28.3118 236.232 30.4878 239.837Z"
        fill="#FFDABF" />
      <path
        d="M182.432 361.213C166.864 383.145 167.421 419.84 171.764 460H245.372L248.572 452.484L252.839 460H322.18C322.18 460 316.846 357.991 307.245 354.77C297.644 351.549 182.432 361.213 182.432 361.213Z"
        fill="#1D1D1D" />
      <path
        d="M245.372 132.061C265.993 132.061 282.709 115.235 282.709 94.479C282.709 73.7229 265.993 56.8969 245.372 56.8969C224.751 56.8969 208.035 73.7229 208.035 94.479C208.035 115.235 224.751 132.061 245.372 132.061Z"
        fill="#FFD6D6" />
      <path
        d="M272.358 141.812L279.659 155.898L330.161 178.559L316.886 307.868L311.299 321.259L314.318 332.888L307.04 341.47C314.345 348.123 315.273 355.089 311.299 362.293L288.043 367.655C288.043 367.655 158.733 379.229 169.631 359.065C181.538 337.033 184.571 271.966 158.284 237.195C135.967 207.676 153.101 169.372 153.101 169.372L206.036 153.448L225.507 141.812L272.358 141.812Z"
        fill="#0D218B" />
      <path
        d="M261.948 39.4271C262.124 39.0534 262.406 38.7411 262.759 38.5301C263.112 38.3192 263.52 38.2194 263.93 38.2434C246.836 37.2142 228.831 39.2196 214.531 48.7011C211.066 50.9982 207.8 53.7381 204.03 55.4044C203.852 55.4849 203.698 55.6103 203.582 55.7685C203.466 55.9267 203.393 56.1123 203.37 56.3073C203.347 56.5022 203.374 56.6999 203.449 56.8812C203.524 57.0624 203.645 57.221 203.799 57.3416L204.213 57.6684C204.376 57.7974 204.501 57.969 204.574 58.1645C204.648 58.3601 204.666 58.5721 204.628 58.7775C204.59 58.9829 204.497 59.1739 204.358 59.3297C204.22 59.4854 204.042 59.6 203.843 59.6609C203.636 59.7245 203.451 59.8462 203.311 60.0119C203.17 60.1775 203.08 60.3801 203.05 60.5959C203.02 60.8116 203.052 61.0315 203.142 61.2296C203.232 61.4277 203.376 61.5957 203.558 61.714L206.731 63.7784C206.891 63.8805 207.023 64.0214 207.114 64.1882C207.206 64.3549 207.255 64.5422 207.256 64.7327C207.257 64.9233 207.21 65.111 207.12 65.2788C207.031 65.4465 206.9 65.5888 206.742 65.6927C206.473 65.8598 206.191 66.0039 205.898 66.1234C205.716 66.1923 205.554 66.3072 205.429 66.4572C205.304 66.6071 205.219 66.787 205.183 66.9795C205.147 67.172 205.161 67.3705 205.223 67.5561C205.285 67.7417 205.394 67.9079 205.539 68.0389C206.913 69.2702 207.967 70.8212 208.609 72.5566C209.667 75.3248 209.857 78.3395 210.035 81.2998C211.128 77.0284 215.76 74.514 220.134 74.2586C224.509 74.0031 228.776 75.456 233.033 76.5004C242.306 78.7686 251.937 79.1415 261.355 77.5971C258.157 84.0576 260.855 91.7637 263.57 98.4447L272.358 94.6533C284.427 87.7958 276.02 116.804 271.508 120.786C280.721 124.001 304.835 88.3183 297.077 74.7829C293.042 67.7419 295.906 58.6608 287.973 51.9829C284.085 47.8629 276.322 49.6941 272.358 46.2699C270.798 44.9222 273.176 41.3165 271.032 40.5307C270.32 40.2697 262.066 39.164 261.948 39.4271Z"
        fill="#1D1D1D" />
      <path
        d="M198.704 157.086C191.853 187.702 174.281 259.187 156.453 274.137C155.323 275.212 153.967 276.018 152.486 276.495C89.8212 291.862 69.7422 252.665 69.7422 252.665C69.7422 252.665 86.5356 244.427 86.9615 228.326L120.828 238.903L150.35 172.03L154.695 167.951L154.719 167.927L198.704 157.086Z"
        fill="#0D218B" />
      <path
        d="M332.316 439.812C334.11 438.076 335.505 435.965 336.401 433.628C337.297 431.29 337.673 428.784 337.502 426.284C337.332 423.785 336.619 421.353 335.414 419.161C334.209 416.969 332.541 415.069 330.528 413.596L348.095 355.32L317.953 364.321L305.892 418.281C303.658 421.849 302.801 426.119 303.485 430.28C304.169 434.442 306.346 438.206 309.603 440.86C312.86 443.514 316.971 444.874 321.157 444.68C325.343 444.487 329.314 442.755 332.316 439.812Z"
        fill="#FFDABF" />
      <path
        d="M316.237 175.298L330.161 178.559C330.161 178.559 387.711 291.266 373.843 312.742C359.975 334.217 342.986 405.317 342.986 405.317C342.986 405.317 317.858 400.289 308.257 387.403L325.838 303.078L307.703 232.209L316.237 175.298Z"
        fill="#0D218B" />
      <path
        d="M143.344 116.823C149.056 116.823 153.687 112.162 153.687 106.412C153.687 100.662 149.056 96.0001 143.344 96.0001C137.631 96.0001 133 100.662 133 106.412C133 112.162 137.631 116.823 143.344 116.823Z"
        fill="#E7E7E7" />
      <path
        d="M85.3437 370.823C91.0564 370.823 95.6875 366.162 95.6875 360.412C95.6875 354.662 91.0564 350 85.3437 350C79.6311 350 75 354.662 75 360.412C75 366.162 79.6311 370.823 85.3437 370.823Z"
        fill="#E7E7E7" />
      <path
        d="M125.961 453.24C132.682 453.24 138.13 447.756 138.13 440.991C138.13 434.226 132.682 428.742 125.961 428.742C119.241 428.742 113.792 434.226 113.792 440.991C113.792 447.756 119.241 453.24 125.961 453.24Z"
        fill="#E7E7E7" />
      <path
        d="M344.169 118.498C350.89 118.498 356.338 113.014 356.338 106.249C356.338 99.4842 350.89 94.0001 344.169 94.0001C337.448 94.0001 332 99.4842 332 106.249C332 113.014 337.448 118.498 344.169 118.498Z"
        fill="#E7E7E7" />
      <path
        d="M62.3015 419.699C66.334 419.699 69.6029 416.408 69.6029 412.349C69.6029 408.291 66.334 405 62.3015 405C58.269 405 55 408.291 55 412.349C55 416.408 58.269 419.699 62.3015 419.699Z"
        fill="#BBBBBB" />
      <path
        d="M174.638 56.9859C178.67 56.9859 181.939 53.6954 181.939 49.6365C181.939 45.5775 178.67 42.2871 174.638 42.2871C170.605 42.2871 167.336 45.5775 167.336 49.6365C167.336 53.6954 170.605 56.9859 174.638 56.9859Z"
        fill="#BBBBBB" />
      <path
        d="M133.301 393.699C137.334 393.699 140.603 390.408 140.603 386.349C140.603 382.291 137.334 379 133.301 379C129.269 379 126 382.291 126 386.349C126 390.408 129.269 393.699 133.301 393.699Z"
        fill="#BBBBBB" />
      <path
        d="M75.4594 147.016C79.4919 147.016 82.7609 143.725 82.7609 139.666C82.7609 135.607 79.4919 132.317 75.4594 132.317C71.4269 132.317 68.158 135.607 68.158 139.666C68.158 143.725 71.4269 147.016 75.4594 147.016Z"
        fill="#BBBBBB" />
      <path
        d="M366.301 196.624C370.334 196.624 373.603 193.334 373.603 189.275C373.603 185.216 370.334 181.925 366.301 181.925C362.269 181.925 359 185.216 359 189.275C359 193.334 362.269 196.624 366.301 196.624Z"
        fill="#BBBBBB" />
      <path
        d="M366.301 409.144C370.334 409.144 373.603 405.853 373.603 401.794C373.603 397.735 370.334 394.445 366.301 394.445C362.269 394.445 359 397.735 359 401.794C359 405.853 362.269 409.144 366.301 409.144Z"
        fill="#BBBBBB" />
      <path
        d="M321.884 56.9859C325.916 56.9859 329.185 53.6954 329.185 49.6365C329.185 45.5775 325.916 42.2871 321.884 42.2871C317.851 42.2871 314.583 45.5775 314.583 49.6365C314.583 53.6954 317.851 56.9859 321.884 56.9859Z"
        fill="#BBBBBB" />
      <path
        d="M135.557 340.574C185.717 340.574 226.381 299.644 226.381 249.154C226.381 198.664 185.717 157.734 135.557 157.734C85.3958 157.734 44.7324 198.664 44.7324 249.154C44.7324 299.644 85.3958 340.574 135.557 340.574Z"
        fill="white" />
      <mask id="path-22-inside-1_122_6381" fill="white">
        <path
          d="M136.167 342.72C85.2465 342.72 43.8198 301.022 43.8198 249.768C43.8198 198.513 85.2465 156.815 136.167 156.815C187.087 156.815 228.513 198.513 228.513 249.768C228.513 301.022 187.087 342.72 136.167 342.72ZM136.167 158.652C86.253 158.652 45.6452 199.527 45.6452 249.768C45.6452 300.009 86.253 340.883 136.167 340.883C186.08 340.883 226.688 300.009 226.688 249.768C226.688 199.527 186.08 158.652 136.167 158.652Z" />
      </mask>
      <path
        d="M136.167 342.72C85.2465 342.72 43.8198 301.022 43.8198 249.768C43.8198 198.513 85.2465 156.815 136.167 156.815C187.087 156.815 228.513 198.513 228.513 249.768C228.513 301.022 187.087 342.72 136.167 342.72ZM136.167 158.652C86.253 158.652 45.6452 199.527 45.6452 249.768C45.6452 300.009 86.253 340.883 136.167 340.883C186.08 340.883 226.688 300.009 226.688 249.768C226.688 199.527 186.08 158.652 136.167 158.652Z"
        fill="#6E40F0" />
      <path
        d="M136.167 333.72C90.2725 333.72 52.8198 296.107 52.8198 249.768H34.8198C34.8198 305.937 80.2205 351.72 136.167 351.72V333.72ZM52.8198 249.768C52.8198 203.428 90.2725 165.815 136.167 165.815V147.815C80.2205 147.815 34.8198 193.598 34.8198 249.768H52.8198ZM136.167 165.815C182.061 165.815 219.513 203.428 219.513 249.768H237.513C237.513 193.598 192.113 147.815 136.167 147.815V165.815ZM219.513 249.768C219.513 296.107 182.061 333.72 136.167 333.72V351.72C192.113 351.72 237.513 305.937 237.513 249.768H219.513ZM136.167 149.652C81.2271 149.652 36.6452 194.612 36.6452 249.768H54.6452C54.6452 204.442 91.279 167.652 136.167 167.652V149.652ZM36.6452 249.768C36.6452 304.924 81.2271 349.883 136.167 349.883V331.883C91.279 331.883 54.6452 295.094 54.6452 249.768H36.6452ZM136.167 349.883C191.106 349.883 235.688 304.924 235.688 249.768H217.688C217.688 295.094 181.054 331.883 136.167 331.883V349.883ZM235.688 249.768C235.688 194.612 191.106 149.652 136.167 149.652V167.652C181.054 167.652 217.688 204.442 217.688 249.768H235.688Z"
        fill="black" mask="url(#path-22-inside-1_122_6381)" />
      <path
        d="M123.693 297.667C122.114 297.667 120.557 297.297 119.145 296.586C117.733 295.875 116.504 294.843 115.557 293.571L90.6128 260.093C89.8114 259.018 89.2284 257.794 88.897 256.491C88.5655 255.189 88.4922 253.834 88.6811 252.503C88.87 251.172 89.3176 249.892 89.9981 248.735C90.6786 247.578 91.5788 246.568 92.6474 245.761C93.7159 244.954 94.9318 244.367 96.2256 244.034C97.5195 243.7 98.8659 243.626 100.188 243.817C101.51 244.007 102.782 244.457 103.932 245.142C105.081 245.827 106.085 246.733 106.886 247.809L123.206 269.709L165.121 206.425C166.618 204.168 168.944 202.602 171.588 202.07C174.232 201.539 176.978 202.086 179.222 203.591C181.465 205.097 183.023 207.437 183.553 210.099C184.082 212.76 183.54 215.524 182.046 217.783L132.157 293.108C131.254 294.47 130.04 295.595 128.617 296.388C127.194 297.18 125.602 297.618 123.976 297.664C123.882 297.666 123.788 297.667 123.693 297.667Z"
        fill="#6E40F0" />
    </g>
  </g>
  <defs>
    <linearGradient id="paint0_linear_122_6381" x1="237.644" y1="321.872" x2="199.235" y2="59.66"
      gradientUnits="userSpaceOnUse">
      <stop stop-color="#074EE8" stop-opacity="0.2" />
      <stop offset="1" stop-color="#9479FD" stop-opacity="0.2" />
    </linearGradient>
    <clipPath id="clip0_122_6381">
      <rect width="404" height="472" fill="white" />
    </clipPath>
    <clipPath id="clip1_122_6381">
      <rect width="348" height="422" fill="white" transform="translate(28 38)" />
    </clipPath>
  </defs>
</svg>