<svg width="350" height="422" viewBox="0 0 350 422" fill="none" xmlns="http://www.w3.org/2000/svg">
<path d="M237.581 14.348C209.373 -18.1755 72.899 2.80744 88.2472 95.6568C94.3171 132.377 25.1954 148.639 17.7287 195.326C14.9338 212.801 17.7288 295.519 71.2399 299.716C88.544 301.073 168.822 322.272 185 255.992C189.563 231.337 267.351 232.707 282.795 215.259C324.216 168.467 293.581 125.557 265.373 109.296C237.166 93.034 265.788 46.8715 237.581 14.348Z" fill="url(#paint0_linear_211_12412)"/>
<g clip-path="url(#clip0_211_12412)">
<path d="M251.701 208.591C250.77 207.906 249.882 207.166 249.041 206.375L250.192 205.152C250.984 205.897 251.82 206.593 252.696 207.238L251.701 208.591Z" fill="#E7E7E7"/>
<path d="M244.419 200.732C243.131 198.659 242.116 196.428 241.399 194.095L243.005 193.602C243.679 195.796 244.634 197.895 245.846 199.844L244.419 200.732ZM240.166 186.911C240.15 186.514 240.141 186.117 240.141 185.719C240.141 183.678 240.361 181.642 240.798 179.648L242.439 180.008C242.028 181.884 241.821 183.799 241.821 185.719C241.821 186.093 241.829 186.467 241.845 186.841L240.166 186.911ZM244.762 173.558L243.268 172.789C243.962 171.442 244.761 170.153 245.659 168.933C246.21 168.185 246.805 167.47 247.441 166.793L248.665 167.944C248.075 168.572 247.523 169.234 247.012 169.929C246.167 171.077 245.415 172.29 244.762 173.558H244.762ZM254.055 163.812L253.262 162.331C255.431 161.169 257.772 160.365 260.197 159.95L260.482 161.606C258.235 161.99 256.065 162.736 254.055 163.812H254.055ZM273.738 163.629C271.712 162.586 269.529 161.879 267.276 161.538L267.529 159.877C269.962 160.246 272.318 161.008 274.506 162.134L273.738 163.629Z" fill="#E7E7E7"/>
<path d="M281.061 170.277C280.51 169.363 279.874 168.503 279.16 167.71L280.408 166.585C281.194 167.458 281.895 168.405 282.5 169.411L281.061 170.277Z" fill="#E7E7E7"/>
<path d="M216.656 152.404L215.303 151.409C215.975 150.495 216.684 149.592 217.409 148.723L218.698 149.8C217.995 150.642 217.308 151.518 216.656 152.404Z" fill="#E7E7E7"/>
<path d="M299.893 150.462C298.602 148.67 297.172 146.983 295.616 145.416L296.808 144.232C298.426 145.862 299.913 147.617 301.256 149.48L299.893 150.462ZM223.27 144.975L222.125 143.745C223.8 142.187 225.572 140.736 227.429 139.4L228.41 140.765C226.61 142.059 224.893 143.465 223.27 144.975ZM290.601 141.101C288.813 139.789 286.947 138.59 285.011 137.509L285.83 136.041C287.826 137.156 289.751 138.394 291.595 139.747L290.601 141.101ZM234.039 137.238L233.239 135.761C235.251 134.672 237.328 133.71 239.46 132.881L240.068 134.447C238.002 135.25 235.989 136.182 234.039 137.238ZM279.019 134.644C276.963 133.817 274.857 133.121 272.713 132.559L273.139 130.934C275.351 131.514 277.524 132.232 279.646 133.086L279.019 134.644ZM246.4 132.433L245.992 130.803C248.21 130.249 250.461 129.832 252.731 129.557L252.933 131.225C250.733 131.492 248.551 131.895 246.4 132.433V132.433ZM266.194 131.285C263.996 130.998 261.782 130.849 259.566 130.839L259.573 129.159C261.86 129.17 264.144 129.323 266.412 129.619L266.194 131.285Z" fill="#E7E7E7"/>
<path d="M304.689 159.126C304.275 158.113 303.817 157.104 303.327 156.129L304.828 155.374C305.338 156.389 305.814 157.437 306.244 158.491L304.689 159.126Z" fill="#E7E7E7"/>
<path d="M309.293 257.851L308.716 256.273C309.751 255.895 310.794 255.489 311.816 255.068L312.456 256.622C311.413 257.051 310.349 257.465 309.293 257.851Z" fill="#E7E7E7"/>
<path d="M283.1 262.983L283.039 261.304C285.218 261.225 287.422 261.058 289.587 260.808L289.78 262.477C287.571 262.732 285.323 262.902 283.1 262.983ZM276.401 262.964C274.175 262.869 271.929 262.685 269.724 262.416L269.928 260.749C272.088 261.012 274.29 261.192 276.472 261.285L276.401 262.964ZM296.399 261.448L296.076 259.799C298.216 259.38 300.366 258.87 302.466 258.285L302.918 259.903C300.775 260.5 298.582 261.02 296.399 261.448ZM263.112 261.343C260.931 260.9 258.742 260.363 256.605 259.749L257.069 258.134C259.164 258.736 261.309 259.262 263.446 259.697L263.112 261.343ZM250.245 257.643C248.163 256.86 246.086 255.983 244.073 255.037L244.787 253.517C246.76 254.444 248.796 255.303 250.836 256.07L250.245 257.643ZM238.127 251.952C236.201 250.853 234.289 249.661 232.444 248.408L233.388 247.019C235.196 248.247 237.071 249.416 238.959 250.492L238.127 251.952Z" fill="#E7E7E7"/>
<path d="M227.04 244.4C226.163 243.684 225.295 242.939 224.459 242.184L225.584 240.937C226.4 241.673 227.247 242.4 228.102 243.099L227.04 244.4Z" fill="#E7E7E7"/>
<path d="M180.533 75.0087L179.67 73.5671C180.635 72.9896 181.618 72.4178 182.593 71.8677L183.419 73.3306C182.456 73.8739 181.485 74.4383 180.533 75.0087Z" fill="#E7E7E7"/>
<path d="M342.258 97.9523C340.819 96.2756 339.304 94.6216 337.755 93.037L338.957 91.8629C340.531 93.4734 342.07 95.154 343.533 96.858L342.258 97.9523ZM332.946 88.4203C331.305 86.9424 329.591 85.4951 327.853 84.1191L328.895 82.8017C330.661 84.1998 332.403 85.67 334.071 87.1718L332.946 88.4203ZM322.498 80.1379C320.681 78.862 318.811 77.6182 316.941 76.4413L317.836 75.0194C319.73 76.2113 321.623 77.4708 323.464 78.763L322.498 80.1379ZM311.205 73.0323C309.273 71.9501 307.287 70.9031 305.302 69.9203L306.047 68.4148C308.058 69.4098 310.07 70.4705 312.026 71.5667L311.205 73.0323ZM189.317 70.199L188.568 68.6956C190.577 67.694 192.639 66.7315 194.697 65.8346L195.368 67.3746C193.337 68.26 191.301 69.2102 189.317 70.199L189.317 70.199ZM299.246 67.116C297.213 66.2366 295.129 65.3991 293.054 64.6266L293.64 63.0521C295.742 63.8347 297.853 64.6832 299.913 65.5738L299.246 67.116ZM201.556 64.8642L200.964 63.292C203.062 62.5025 205.212 61.7558 207.353 61.0727L207.864 62.6734C205.75 63.3477 203.627 64.0849 201.556 64.8642L201.556 64.8642ZM286.742 62.4593C284.63 61.7949 282.471 61.1764 280.325 60.621L280.746 58.9946C282.92 59.5571 285.107 60.1838 287.246 60.857L286.742 62.4593ZM214.275 60.8075L213.847 59.1827C216.015 58.6115 218.229 58.0876 220.429 57.6261L220.774 59.27C218.602 59.726 216.416 60.2434 214.275 60.8075L214.275 60.8075ZM273.822 59.1152C271.654 58.6714 269.443 58.2779 267.251 57.9457L267.502 56.2848C269.723 56.6211 271.963 57.0198 274.159 57.4691L273.822 59.1152ZM227.342 58.066L227.081 56.4062C229.296 56.0581 231.552 55.762 233.786 55.5263L233.963 57.197C231.757 57.43 229.529 57.7223 227.342 58.066V58.066ZM260.627 57.1153C258.424 56.896 256.184 56.7311 253.969 56.6247L254.049 54.9469C256.293 55.0543 258.562 55.2214 260.793 55.4434L260.627 57.1153ZM240.619 56.6663L240.528 54.989C242.771 54.8673 245.046 54.8022 247.288 54.7954L247.294 56.4754C245.079 56.4823 242.834 56.5465 240.619 56.6663L240.619 56.6663Z" fill="#E7E7E7"/>
<path d="M348.42 105.877C347.783 104.97 347.124 104.063 346.462 103.182L347.804 102.172C348.478 103.068 349.148 103.99 349.795 104.911L348.42 105.877Z" fill="#E7E7E7"/>
<path d="M271.918 377.556C270.803 377.413 269.69 377.261 268.577 377.099L268.818 375.437C269.922 375.596 271.026 375.748 272.132 375.89L271.918 377.556Z" fill="#E7E7E7"/>
<path d="M261.778 375.995C259.53 375.592 257.256 375.144 255.021 374.664L255.374 373.021C257.59 373.497 259.845 373.941 262.075 374.342L261.778 375.995ZM248.313 373.107C246.091 372.552 243.854 371.953 241.661 371.325L242.123 369.71C244.298 370.332 246.517 370.927 248.72 371.478L248.313 373.107ZM235.073 369.32C232.895 368.617 230.702 367.868 228.557 367.094L229.127 365.513C231.255 366.281 233.429 367.024 235.59 367.722L235.073 369.32ZM222.119 364.65C219.999 363.804 217.862 362.909 215.768 361.991L216.443 360.452C218.52 361.363 220.639 362.251 222.742 363.09L222.119 364.65ZM209.509 359.119C207.448 358.131 205.376 357.095 203.351 356.039L204.128 354.549C206.136 355.596 208.191 356.624 210.236 357.604L209.509 359.119ZM197.3 352.754C195.317 351.635 193.319 350.462 191.362 349.27L192.236 347.835C194.178 349.018 196.159 350.181 198.126 351.291L197.3 352.754ZM185.543 345.589C183.634 344.337 181.718 343.035 179.849 341.719L180.816 340.345C182.67 341.651 184.57 342.942 186.464 344.185L185.543 345.589ZM174.283 337.656C172.456 336.27 170.638 334.829 168.878 333.376L169.949 332.081C171.69 333.52 173.49 334.945 175.298 336.318L174.283 337.656ZM163.656 328.876C161.953 327.346 160.261 325.76 158.625 324.162L159.799 322.96C161.418 324.542 163.093 326.112 164.779 327.626L163.656 328.876ZM153.795 319.241C152.227 317.574 150.673 315.852 149.176 314.122L150.447 313.023C151.928 314.736 153.466 316.44 155.019 318.09L153.795 319.241ZM144.777 308.813C143.353 307.02 141.95 305.173 140.605 303.324L141.963 302.335C143.295 304.166 144.684 305.994 146.093 307.769L144.777 308.813Z" fill="#E7E7E7"/>
<path d="M136.648 297.634C136.024 296.695 135.411 295.752 134.809 294.803L136.227 293.902C136.823 294.841 137.43 295.775 138.047 296.704L136.648 297.634Z" fill="#E7E7E7"/>
<path d="M67.4111 116.033L81.0685 141.004L57.9844 118.119C31.7486 125.108 6.6355 140.961 6.6355 140.961C6.6355 140.961 37.2677 194.414 69.7813 202.495C102.295 210.576 118.451 194.069 124.378 170.225C130.304 146.382 123.755 124.232 91.2417 116.151C84.0048 114.352 75.7976 114.586 67.4111 116.033Z" fill="#E7E7E7"/>
<path d="M80.7824 146.482L82.385 146.88C100.99 151.605 114.744 158.36 123.447 167.068C123.576 167.193 123.695 167.324 123.824 167.449L123.232 168.034L122.656 168.59C113.304 159.004 98.2831 152.702 82.0562 148.576C81.5345 148.438 81.005 148.298 80.4714 148.174C73.5868 146.488 66.5243 145.179 59.597 144.173C59.0615 144.091 58.5162 144.014 57.9708 143.937C48.8204 142.657 39.9642 141.888 32.2188 141.429C31.6714 141.394 31.1222 141.367 30.5808 141.342C17.4676 140.618 7.79382 140.8 5.6485 140.857C5.38679 140.859 5.24205 140.865 5.20834 140.865L5.18146 140.058L5.17549 140.048L5.15057 139.233C5.18431 139.233 5.67007 139.211 6.56625 139.198C9.91904 139.13 18.9962 139.044 30.7847 139.674C31.3162 139.705 31.8655 139.732 32.4128 139.767C38.6987 140.133 45.6849 140.699 52.9471 141.577C54.7716 141.795 56.5663 142.03 58.3314 142.283C58.8787 142.352 59.424 142.429 59.9595 142.511C67.4481 143.597 74.3891 144.921 80.7824 146.482Z" fill="white"/>
<path d="M30.7848 139.674C30.7241 140.223 30.6615 140.78 30.5809 141.341C30.3644 142.866 30.07 144.379 29.6988 145.873C28.1242 152.245 25.1402 158.182 20.9666 163.247C21.3043 163.684 21.642 164.122 21.9856 164.57C26.4395 159.257 29.6205 152.997 31.2856 146.268C31.6817 144.672 31.9932 143.057 32.2188 141.428C32.2974 140.875 32.36 140.318 32.4128 139.767C32.8741 135.222 32.6425 130.634 31.726 126.16C31.2048 126.392 30.6936 126.619 30.1922 126.84C31.0207 131.065 31.2203 135.39 30.7848 139.674Z" fill="white"/>
<path d="M58.3314 142.283C58.2271 142.838 58.1069 143.39 57.9708 143.937C57.9374 144.106 57.894 144.28 57.8526 144.447C56.1373 151.348 52.7787 157.733 48.0629 163.056C43.3472 168.379 37.4142 172.482 30.7698 175.017C31.159 175.451 31.5482 175.884 31.9473 176.312C38.7002 173.627 44.7162 169.372 49.4972 163.9C54.2781 158.427 57.6862 151.894 59.4393 144.841C59.4946 144.619 59.5498 144.397 59.597 144.173C59.7271 143.616 59.8473 143.064 59.9596 142.511C61.6311 133.932 60.7963 125.053 57.5551 116.936C57.0239 117.074 56.4927 117.211 55.9596 117.357C59.1588 125.258 59.9831 133.92 58.3314 142.283Z" fill="white"/>
<path d="M80.7824 146.482C80.692 147.049 80.5857 147.612 80.4715 148.174C80.3474 148.775 80.2154 149.374 80.0675 149.969C77.7518 159.24 72.4955 167.511 65.0854 173.545C57.6754 179.579 48.5103 183.05 38.9623 183.439C39.5163 183.956 40.0623 184.471 40.6201 184.971C50.2293 184.248 59.3661 180.514 66.7324 174.301C74.0987 168.089 79.3199 159.712 81.6543 150.363C81.8021 149.768 81.9421 149.171 82.0563 148.576C82.1805 148.009 82.2868 147.445 82.3851 146.88C84.2956 135.444 81.7889 123.71 75.3726 114.053C74.7441 114.073 74.1176 114.12 73.4831 114.164C80.0261 123.578 82.6443 135.17 80.7824 146.482Z" fill="white"/>
<path d="M105.66 274.69L100.543 269.48L106.817 259.886L117.556 242.011C117.205 241.24 117.096 240.382 117.244 239.549C117.392 238.715 117.789 237.947 118.383 237.344C118.977 236.741 119.74 236.333 120.571 236.174C121.402 236.014 122.262 236.111 123.037 236.45C123.812 236.79 124.466 237.357 124.911 238.077C125.357 238.796 125.574 239.634 125.533 240.479C125.493 241.324 125.196 242.137 124.683 242.81C124.171 243.483 123.465 243.985 122.661 244.249L113.797 263.333L105.66 274.69Z" fill="#FFDABF"/>
<path d="M99.9916 286.584C99.3908 287.515 98.5347 288.253 97.5257 288.709C96.5168 289.166 95.3976 289.323 94.3019 289.161C93.2591 289.038 92.2749 288.613 91.4702 287.938C90.6654 287.264 90.0752 286.369 89.772 285.363C89.5486 284.65 89.4835 283.896 89.5814 283.155C89.6792 282.414 89.9375 281.703 90.3384 281.072C93.7615 275.301 100.075 267.68 100.138 267.604L100.239 267.482L110.887 269.789L99.9916 286.584Z" fill="#6E40F0"/>
<path d="M191.09 78.5897L189.838 78.9753L179.275 44.668C177.654 39.4019 174.007 34.9955 169.137 32.4182C164.267 29.8409 158.572 29.3038 153.306 30.9252H153.306L80.6215 53.3032C78.0139 54.106 75.59 55.4145 73.4882 57.1541C71.3863 58.8936 69.6477 61.0301 68.3716 63.4416C67.0954 65.8531 66.3068 68.4923 66.0506 71.2086C65.7944 73.9249 66.0758 76.665 66.8786 79.2725V79.2726L124.825 267.485C126.446 272.751 130.093 277.157 134.963 279.735C139.834 282.312 145.528 282.849 150.794 281.228H150.794L223.479 258.85C228.745 257.228 233.152 253.582 235.729 248.711C238.306 243.841 238.843 238.147 237.222 232.88V232.88L197.356 103.396L198.609 103.01L191.09 78.5897Z" fill="#1D1D1D"/>
<path d="M155.698 35.8446L146.21 38.7657C146.976 39.7011 147.499 40.8104 147.735 41.9959C147.971 43.1814 147.912 44.4068 147.563 45.564C147.214 46.7213 146.585 47.7749 145.733 48.6321C144.881 49.4892 143.831 50.1237 142.675 50.4794L101.035 63.2995C99.8801 63.6551 98.6551 63.7211 97.4682 63.4918C96.2814 63.2624 95.1692 62.7447 94.2296 61.9842C93.29 61.2238 92.5518 60.2439 92.0801 59.131C91.6084 58.018 91.4177 56.8061 91.5246 55.6021L82.663 58.3304C78.7303 59.5412 75.4397 62.2646 73.515 65.9016C71.5903 69.5387 71.1892 73.7913 72.4 77.724L130.262 265.66C131.472 269.593 134.196 272.884 137.833 274.808C141.47 276.733 145.722 277.134 149.655 275.923H149.655L222.69 253.437C226.623 252.227 229.913 249.503 231.838 245.866C233.763 242.229 234.164 237.977 232.953 234.044L175.091 46.1076C173.881 42.1749 171.157 38.8842 167.52 36.9596C163.883 35.0349 159.63 34.6338 155.698 35.8446Z" fill="white"/>
<path d="M178.793 179.861C193.325 165.329 193.325 141.768 178.793 127.236C164.261 112.704 140.701 112.704 126.169 127.236C111.637 141.768 111.637 165.329 126.169 179.861C140.701 194.393 164.261 194.393 178.793 179.861Z" fill="#6E40F0"/>
<path d="M156.377 171.307L137.959 158.812L139.567 156.442L154.815 166.787L165.836 132.312L168.562 133.183L156.377 171.307Z" fill="white"/>
<path d="M108.627 414.294H114.989L118.016 389.752L108.625 389.753L108.627 414.294Z" fill="#FFDABF"/>
<path d="M107.004 412.216L119.534 412.216H119.534C121.652 412.216 123.683 413.057 125.18 414.555C126.678 416.052 127.519 418.083 127.519 420.201V420.46L107.004 420.461L107.004 412.216Z" fill="#1D1D1D"/>
<path d="M59.0856 411.54L65.3766 412.491L72.0384 388.678L63.7913 387.274L59.0856 411.54Z" fill="#FFDABF"/>
<path d="M57.7916 409.243L70.181 411.116L70.1815 411.116C72.2754 411.433 74.1578 412.568 75.4146 414.272C76.6714 415.977 77.1997 418.111 76.8832 420.205L76.8445 420.461L56.5594 417.395L57.7916 409.243Z" fill="#1D1D1D"/>
<path d="M95.9366 298.601L110.732 295.378L119.031 319.1L119.29 410.699L107.213 410.624L102.164 336.486L69.988 404.991L57.0136 403.434L85.2977 329.999C85.2977 329.999 83.7407 317.025 88.671 310.537L87.633 303.791L95.9366 298.601Z" fill="#1D1D1D"/>
<path d="M82.0468 281.159C81.7105 280.149 81.6748 279.062 81.944 278.032C82.2132 277.002 82.7757 276.072 83.5633 275.356L86.6907 272.513L95.5075 271.027L101.02 270.025L114.092 302.658L88.3607 305.588C86.4721 305.18 85.7176 304.147 86.8166 302.093L82.0468 281.159Z" fill="#6E40F0"/>
<path d="M113.203 275.755L112.466 268.489L123.361 264.925L142.918 257.687C143.126 256.867 143.577 256.129 144.214 255.571C144.85 255.013 145.64 254.661 146.481 254.562C147.321 254.463 148.172 254.621 148.92 255.016C149.669 255.412 150.279 256.024 150.672 256.774C151.064 257.524 151.22 258.375 151.118 259.215C151.016 260.055 150.662 260.845 150.102 261.479C149.541 262.113 148.802 262.562 147.981 262.767C147.16 262.972 146.296 262.923 145.503 262.626L126.654 271.978L113.203 275.755Z" fill="#FFDABF"/>
<path d="M101.341 281.495C100.291 281.845 99.1616 281.886 98.0886 281.612C97.0156 281.338 96.0443 280.76 95.2907 279.948C94.5541 279.2 94.0518 278.253 93.8455 277.224C93.6392 276.194 93.7378 275.127 94.1293 274.153C94.4011 273.456 94.8215 272.827 95.3612 272.31C95.901 271.793 96.5471 271.399 97.2545 271.157C103.534 268.794 113.226 266.793 113.323 266.773L113.477 266.741L120.346 275.199L101.341 281.495Z" fill="#6E40F0"/>
<path d="M91.6382 267.904C96.9833 267.904 101.316 263.571 101.316 258.226C101.316 252.88 96.9833 248.547 91.6382 248.547C86.293 248.547 81.9599 252.88 81.9599 258.226C81.9599 263.571 86.293 267.904 91.6382 267.904Z" fill="#FFDABF"/>
<path d="M83.8025 272.013C82.3017 272.013 80.8022 271.921 79.3124 271.739L79.1082 271.714L77.5492 263.251C76.8881 259.663 77.6252 255.958 79.6095 252.897C81.5937 249.836 84.6745 247.65 88.2195 246.788C88.456 246.729 88.7045 246.735 88.9376 246.807C89.1707 246.879 89.3794 247.014 89.5407 247.198L89.9125 247.068C91.336 246.571 92.8433 246.36 94.3484 246.446C95.8535 246.533 97.3269 246.914 98.6845 247.57C100.042 248.226 101.257 249.142 102.26 250.267C103.264 251.392 104.036 252.704 104.532 254.128L104.624 254.392L102.143 255.257C101.37 255.527 100.667 255.965 100.084 256.541C99.5021 257.117 99.0554 257.815 98.7768 258.585C98.4982 259.355 98.3948 260.177 98.474 260.992C98.5531 261.807 98.813 262.594 99.2346 263.296L101.771 267.519L101.501 267.654C96.026 270.477 89.9626 271.971 83.8025 272.013Z" fill="#1D1D1D"/>
<path d="M213.92 421.378H0.56C0.411479 421.378 0.26904 421.319 0.16402 421.214C0.0589994 421.109 0 420.967 0 420.818C0 420.67 0.0589994 420.527 0.16402 420.422C0.26904 420.317 0.411479 420.258 0.56 420.258H213.92C214.069 420.258 214.211 420.317 214.316 420.422C214.421 420.527 214.48 420.67 214.48 420.818C214.48 420.967 214.421 421.109 214.316 421.214C214.211 421.319 214.069 421.378 213.92 421.378Z" fill="#BBBBBB"/>
</g>
<defs>
<linearGradient id="paint0_linear_211_12412" x1="181.246" y1="218.416" x2="183.677" y2="27.6413" gradientUnits="userSpaceOnUse">
<stop stop-color="#074EE8" stop-opacity="0.2"/>
<stop offset="1" stop-color="#9479FD" stop-opacity="0.2"/>
</linearGradient>
<clipPath id="clip0_211_12412">
<rect width="350" height="391.44" fill="white" transform="translate(0 30)"/>
</clipPath>
</defs>
</svg>
