<svg width="349" height="417" viewBox="0 0 349 417" fill="none" xmlns="http://www.w3.org/2000/svg">
  <path
    d="M237.777 15.764C207.498 -19.9691 61.0035 3.08449 77.4786 105.097C83.9942 145.44 9.79716 163.307 1.78222 214.601C-1.21787 233.801 1.78231 324.682 59.2225 329.293C77.7973 330.784 163.97 354.075 181.336 281.254C186.234 254.166 269.733 255.672 286.312 236.502C330.774 185.092 297.889 137.948 267.61 120.081C237.332 102.215 268.056 51.497 237.777 15.764Z"
    fill="url(#paint0_linear_86_3768)" />
  <g clip-path="url(#clip0_86_3768)">
    <rect x="150.5" y="59.5" width="198" height="244" rx="7.5" fill="white" stroke="#1D1D1D" />
    <path d="M336.539 402.239H0V403.645H336.539V402.239Z" fill="#1D1D1D" />
    <path
      d="M309.702 125.12C316.209 125.12 321.484 119.141 321.484 111.766C321.484 104.39 316.209 98.4108 309.702 98.4108C303.195 98.4108 297.921 104.39 297.921 111.766C297.921 119.141 303.195 125.12 309.702 125.12Z"
      fill="#6E40F0" />
    <path
      d="M312.663 132.149H266.261C262.158 132.149 258.224 130.002 255.323 126.179C252.423 122.356 250.793 117.172 250.793 111.766C250.793 106.36 252.423 101.175 255.323 97.3522C258.224 93.5295 262.158 91.382 266.261 91.382H312.663C316.765 91.382 320.699 93.5295 323.6 97.3522C326.501 101.175 328.13 106.36 328.13 111.766C328.13 117.172 326.501 122.356 323.6 126.179C320.699 130.002 316.765 132.149 312.663 132.149ZM266.261 94.0998C262.705 94.0998 259.296 95.961 256.782 99.274C254.268 102.587 252.855 107.08 252.855 111.766C252.855 116.451 254.268 120.944 256.782 124.257C259.296 127.57 262.705 129.432 266.261 129.432H312.663C316.218 129.432 319.628 127.57 322.142 124.257C324.656 120.944 326.068 116.451 326.068 111.766C326.068 107.08 324.656 102.587 322.142 99.274C319.628 95.961 316.218 94.0998 312.663 94.0998H266.261Z"
      fill="#1D1D1D" />
    <path
      d="M269.221 194.672C275.728 194.672 281.003 188.535 281.003 180.966C281.003 173.396 275.728 167.259 269.221 167.259C262.714 167.259 257.439 173.396 257.439 180.966C257.439 188.535 262.714 194.672 269.221 194.672Z"
      fill="#E7E7E7" />
    <path
      d="M312.663 200.998H266.261C262.158 200.998 258.224 198.887 255.323 195.131C252.423 191.374 250.793 186.278 250.793 180.966C250.793 175.653 252.423 170.557 255.323 166.801C258.224 163.044 262.158 160.933 266.261 160.933H312.663C316.765 160.933 320.699 163.044 323.6 166.801C326.501 170.557 328.13 175.653 328.13 180.966C328.13 186.278 326.501 191.374 323.6 195.131C320.699 198.887 316.765 200.998 312.663 200.998ZM266.261 163.604C262.705 163.604 259.296 165.433 256.782 168.689C254.268 171.945 252.855 176.361 252.855 180.966C252.855 185.57 254.268 189.986 256.782 193.242C259.296 196.498 262.705 198.327 266.261 198.327H312.663C316.218 198.327 319.628 196.498 322.142 193.242C324.656 189.986 326.068 185.57 326.068 180.966C326.068 176.361 324.656 171.945 322.142 168.689C319.628 165.433 316.218 163.604 312.663 163.604H266.261Z"
      fill="#E7E7E7" />
    <path
      d="M269.221 263.52C275.728 263.52 281.003 257.541 281.003 250.165C281.003 242.79 275.728 236.811 269.221 236.811C262.714 236.811 257.439 242.79 257.439 250.165C257.439 257.541 262.714 263.52 269.221 263.52Z"
      fill="#E7E7E7" />
    <path
      d="M312.663 270.549H266.261C262.158 270.549 258.224 268.402 255.323 264.579C252.423 260.756 250.793 255.572 250.793 250.165C250.793 244.759 252.423 239.575 255.323 235.752C258.224 231.929 262.158 229.782 266.261 229.782H312.663C316.765 229.782 320.699 231.929 323.6 235.752C326.501 239.575 328.13 244.759 328.13 250.165C328.13 255.572 326.501 260.756 323.6 264.579C320.699 268.402 316.765 270.549 312.663 270.549ZM266.261 232.5C262.705 232.5 259.296 234.361 256.782 237.674C254.268 240.987 252.855 245.48 252.855 250.165C252.855 254.851 254.268 259.344 256.782 262.657C259.296 265.97 262.705 267.831 266.261 267.831H312.663C314.423 267.831 316.166 267.374 317.793 266.487C319.419 265.599 320.897 264.298 322.142 262.657C323.387 261.017 324.374 259.069 325.048 256.926C325.721 254.783 326.068 252.485 326.068 250.165C326.068 247.846 325.721 245.548 325.048 243.405C324.374 241.262 323.387 239.314 322.142 237.674C320.897 236.033 319.419 234.732 317.793 233.844C316.166 232.956 314.423 232.5 312.663 232.5H266.261Z"
      fill="#E7E7E7" />
    <path
      d="M108.977 416.951C68.1446 416.951 35.0435 414.052 35.0435 410.476C35.0435 406.9 68.1446 404.001 108.977 404.001C149.809 404.001 182.91 406.9 182.91 410.476C182.91 414.052 149.809 416.951 108.977 416.951Z"
      fill="#E7E7E7" />
    <path
      d="M116.69 148.729L132.126 162.883L164.835 149.51C164.835 149.51 175.956 134.958 182.245 145.797C184.398 149.509 170.291 156.367 168.961 157.004C165.633 158.597 133.761 178.939 130.638 176.27C127.514 173.602 109.942 160.104 109.942 160.104L116.69 148.729Z"
      fill="#B67458" />
    <path
      d="M63.998 124.584C78.6278 118.224 92.5447 115.215 103.828 124.584V94.3479C103.828 91.3054 103.313 88.2928 102.312 85.4819C101.311 82.6711 99.8444 80.1171 97.9951 77.9658C96.1458 75.8144 93.9504 74.1079 91.5342 72.9436C89.118 71.7793 86.5284 71.1801 83.9131 71.1801H83.913C81.2978 71.1801 78.7081 71.7793 76.2919 72.9436C73.8757 74.1079 71.6803 75.8144 69.831 77.9658C67.9817 80.1171 66.5148 82.6711 65.514 85.482C64.5132 88.2928 63.9981 91.3055 63.9981 94.3479L63.998 124.584Z"
      fill="#1D1D1D" />
    <path
      d="M100.758 190.635L101.954 200.37C101.954 200.37 104.942 210.8 101.954 230.27L150.071 382.902L114.506 394.723L96.8731 311.28L72.0674 247.654L74.4583 319.972L87.0106 397.156L49.9514 395.418L39.1524 263.069C37.4062 242.153 40.5249 221.075 48.1822 202.041C51.178 194.64 54.3991 188.807 57.3219 187.96C66.0901 185.42 100.758 190.635 100.758 190.635Z"
      fill="#1D1D1D" />
    <path
      d="M145.588 381.859L157.841 397.156C157.841 397.156 181.452 411.411 164.715 413.15C147.979 414.888 142.3 407.239 142.3 407.239C142.3 407.239 121.38 405.501 121.679 402.024C121.978 398.547 123.472 387.074 123.472 387.074L145.588 381.859Z"
      fill="#1D1D1D" />
    <path
      d="M79.0906 385.547V396.325C79.0906 396.325 78.7918 400.845 79.0906 401.888C79.3895 402.931 83.8725 415.795 68.9293 413.014C53.9861 410.232 59.9633 399.454 59.9633 399.454L63.5497 383.809L79.0906 385.547Z"
      fill="#1D1D1D" />
    <path
      d="M84.0966 115.536C75.8025 115.536 69.0787 107.714 69.0787 98.0655C69.0787 88.4166 75.8025 80.5946 84.0966 80.5946C92.3908 80.5946 99.1146 88.4166 99.1146 98.0655C99.1146 107.714 92.3908 115.536 84.0966 115.536Z"
      fill="#B67458" />
    <path
      d="M73.7111 107.714C73.7111 107.714 75.8031 130.66 73.7111 134.833C71.619 139.005 94.9304 130.66 94.9304 130.66C94.9304 130.66 89.8497 115.015 91.6429 108.757C93.4361 102.498 73.7111 107.714 73.7111 107.714Z"
      fill="#B67458" />
    <path
      d="M61.7565 173.773L56.9747 189.07L101.505 194.981C101.505 194.981 106.287 193.938 106.287 189.418C106.287 184.898 111.368 168.905 111.368 168.905C111.368 168.905 123.811 157.172 129.788 154.043C131.955 152.91 128.714 153.378 126.891 148.566C126.344 147.12 125.689 145.593 124.975 144.046C124.392 142.777 123.765 141.491 123.122 140.222C122.342 138.674 121.538 137.152 120.758 135.702C118.397 131.318 116.242 127.632 115.552 126.141C113.46 121.621 93.7917 121.217 93.7917 121.217C88.1672 125.334 71.9179 126.141 71.9179 126.141C71.9179 126.141 60.7404 131.582 56.0841 135.702C55.7464 135.997 61.7565 173.773 61.7565 173.773Z"
      fill="#E7E7E7" />
    <path
      d="M71.424 77.0923V76.6774L71.8479 76.7049C74.2556 74.5718 77.0494 73.1047 80.0171 72.4148C82.9849 71.7249 86.0487 71.8304 88.9762 72.7231C86.1699 73.5859 83.5605 75.1543 81.332 77.3178L95.7271 78.2481L101.803 93.9552H97.691L94.3769 86.887V93.9552H80.4702L79.525 88.4577L76.8997 93.9552H74.1674C74.1505 94.3471 74.1243 94.7363 74.1243 95.1331L76.8247 125.369L63.9981 119.086V95.1332C63.9957 91.6711 64.6618 88.2526 65.9471 85.1301C67.2324 82.0076 69.1041 79.2607 71.424 77.0923Z"
      fill="#1D1D1D" />
    <path
      d="M51.2963 157.084L52.1929 184.551L54.5838 237.746C54.5838 237.746 51.2963 260.692 59.6645 260.345C68.0327 259.997 61.7566 233.226 61.7566 233.226L64.1475 191.157L61.7566 161.604L51.2963 157.084Z"
      fill="#B67458" />
    <path
      d="M48.9055 172.034C48.9055 175.163 63.9981 174.294 63.9981 174.294L71.918 126.141C71.918 126.141 60.7405 131.582 56.0842 135.702C54.9883 137.024 54.092 138.552 53.4332 140.222C53.0776 141.338 52.7399 142.631 52.4201 144.046C52.1033 145.451 51.8074 146.977 51.5295 148.566C50.2251 156.316 49.3486 164.154 48.9055 172.034Z"
      fill="#E7E7E7" />
    <path
      d="M218.655 97.6783C218.655 101.355 218.059 104.996 216.9 108.393C215.742 111.79 214.044 114.876 211.903 117.476C209.763 120.076 207.221 122.139 204.424 123.546C201.627 124.953 198.63 125.677 195.602 125.677C192.575 125.677 189.577 124.953 186.78 123.546C183.983 122.139 181.442 120.076 179.301 117.476C177.161 114.876 175.463 111.79 174.304 108.393C173.146 104.996 172.549 101.355 172.549 97.6783H218.655Z"
      fill="#6E40F0" />
    <path
      d="M181.007 102.649C181.007 103.38 180.793 103.974 180.529 103.974C180.266 103.974 180.052 103.38 180.052 102.649C180.081 102.153 180.249 101.685 180.529 101.323C180.809 101.685 180.978 102.153 181.007 102.649Z"
      fill="#1D1D1D" />
    <path
      d="M205.151 107.287C205.151 108.019 204.937 108.613 204.673 108.613C204.41 108.613 204.196 108.019 204.196 107.287C204.225 106.792 204.394 106.324 204.673 105.962C204.953 106.324 205.122 106.792 205.151 107.287Z"
      fill="#1D1D1D" />
    <path
      d="M187.418 104.636C187.418 105.368 187.204 105.962 186.94 105.962C186.677 105.962 186.463 105.368 186.463 104.636C186.492 104.141 186.661 103.673 186.94 103.311C187.22 103.673 187.389 104.141 187.418 104.636Z"
      fill="#1D1D1D" />
    <path
      d="M196.966 115.074C196.966 115.806 196.753 116.399 196.489 116.399C196.225 116.399 196.012 115.806 196.012 115.074C196.041 114.579 196.209 114.111 196.489 113.749C196.769 114.111 196.937 114.579 196.966 115.074Z"
      fill="#1D1D1D" />
    <path
      d="M186.736 113.749C186.736 114.481 186.522 115.074 186.258 115.074C185.995 115.074 185.781 114.481 185.781 113.749C185.81 113.253 185.979 112.785 186.258 112.423C186.538 112.785 186.707 113.253 186.736 113.749Z"
      fill="#1D1D1D" />
    <path
      d="M210.607 101.323C210.607 102.055 210.394 102.648 210.13 102.648C209.866 102.648 209.652 102.055 209.652 101.323C209.681 100.828 209.85 100.36 210.13 99.9977C210.41 100.36 210.578 100.828 210.607 101.323Z"
      fill="#1D1D1D" />
    <path
      d="M201.877 117.725C201.877 118.457 201.663 119.05 201.4 119.05C201.136 119.05 200.922 118.457 200.922 117.725C200.951 117.229 201.12 116.761 201.4 116.399C201.68 116.761 201.848 117.229 201.877 117.725Z"
      fill="#1D1D1D" />
    <path
      d="M195.602 127.251C189.147 127.242 182.958 124.123 178.393 118.579C173.828 113.035 171.261 105.519 171.253 97.6783H173.845C173.845 101.148 174.408 104.585 175.501 107.791C176.595 110.997 178.197 113.91 180.218 116.363C182.238 118.817 184.637 120.764 187.276 122.092C189.916 123.42 192.745 124.103 195.602 124.103C198.459 124.103 201.289 123.42 203.928 122.092C206.568 120.764 208.967 118.817 210.987 116.363C213.007 113.91 214.61 110.997 215.703 107.791C216.797 104.585 217.359 101.148 217.359 97.6783H219.951C219.944 105.519 217.376 113.035 212.811 118.579C208.247 124.123 202.058 127.242 195.602 127.251Z"
      fill="#1D1D1D" />
    <path
      d="M219.951 238.7C219.967 235.841 216.769 233.502 213.015 233.502H178.184C174.489 233.502 171.297 235.802 171.254 238.616C171.241 239.415 171.471 240.206 171.928 240.927C172.384 241.647 173.054 242.276 173.884 242.766C174.097 242.886 174.265 243.048 174.37 243.233C174.476 243.419 174.515 243.622 174.485 243.823C174.445 244.051 174.425 244.281 174.425 244.511V262.86C174.425 263.536 174.599 264.205 174.939 264.829C175.278 265.453 175.775 266.02 176.402 266.497C177.03 266.975 177.774 267.354 178.593 267.612C179.413 267.871 180.291 268.004 181.178 268.004H209.801C211.592 268.004 213.309 267.462 214.576 266.497C215.842 265.533 216.554 264.225 216.554 262.86V244.511C216.554 244.31 216.538 244.108 216.508 243.909C216.48 243.711 216.523 243.511 216.631 243.33C216.74 243.148 216.91 242.993 217.124 242.878C217.995 242.402 218.706 241.775 219.198 241.048C219.689 240.322 219.947 239.517 219.951 238.7Z"
      fill="#1D1D1D" />
    <path
      d="M218.443 238.196C218.269 237.201 217.623 236.288 216.628 235.63C215.632 234.972 214.354 234.614 213.036 234.624H178.173C176.941 234.615 175.741 234.927 174.773 235.508C173.805 236.089 173.126 236.904 172.848 237.818C172.61 238.659 172.729 239.535 173.187 240.321C173.645 241.107 174.418 241.762 175.396 242.191C175.678 242.314 175.899 242.505 176.023 242.734C176.148 242.963 176.168 243.217 176.082 243.456C175.959 243.8 175.896 244.155 175.897 244.512V262.859C175.897 263.797 176.327 264.705 177.113 265.427C177.898 266.149 178.99 266.639 180.2 266.813C180.523 266.859 180.85 266.882 181.179 266.882H209.802C210.285 266.883 210.766 266.832 211.231 266.732C212.339 266.495 213.315 265.988 214.01 265.289C214.705 264.59 215.081 263.738 215.081 262.861V244.51C215.081 244.176 215.027 243.843 214.918 243.52C214.889 243.43 214.874 243.338 214.873 243.245C214.873 243.043 214.946 242.844 215.083 242.67C215.22 242.496 215.417 242.354 215.652 242.259L215.654 242.257C216.603 241.874 217.377 241.28 217.875 240.556C218.372 239.831 218.57 239.008 218.443 238.196Z"
      fill="#6E40F0" />
    <path opacity="0.2"
      d="M215.081 246.268V244.543H211.231V234.624H208.966V244.543H196.848V234.624H194.583V244.543H182.465V234.624H180.2V244.543H175.897V246.268H180.2V253.168V256.618H175.897V258.343H180.2V266.813C180.523 266.859 180.851 266.882 181.179 266.882H182.465V258.343H194.583V266.882H196.848V258.343H208.966V266.882H209.802C210.285 266.883 210.766 266.833 211.231 266.732V258.343H215.081V256.618H211.231V253.168V246.268H215.081ZM182.465 246.268H194.583V253.168H182.465V246.268ZM182.465 256.618V253.168H194.583V256.618H182.465ZM208.966 256.618H196.848V253.168H208.966V256.618ZM208.966 253.168H196.848V246.268H208.966V253.168Z"
      fill="#1D1D1D" />
    <path
      d="M194.225 180.449L180.146 178.494C180.254 177.492 180.171 176.469 179.905 175.521C179.638 174.573 179.197 173.731 178.622 173.074C178.047 172.417 177.357 171.966 176.617 171.763C175.877 171.56 175.111 171.612 174.39 171.914C173.669 172.217 173.017 172.759 172.495 173.491C171.972 174.222 171.597 175.12 171.403 176.099C171.209 177.078 171.204 178.107 171.387 179.09C171.57 180.072 171.936 180.977 172.451 181.719C171.928 182.476 171.56 183.401 171.382 184.405C171.204 185.409 171.222 186.458 171.434 187.449C171.647 188.441 172.047 189.343 172.595 190.067C173.144 190.79 173.822 191.312 174.565 191.582C175.308 191.851 176.09 191.859 176.835 191.604C177.581 191.349 178.265 190.841 178.821 190.128C179.378 189.415 179.787 188.521 180.011 187.534C180.234 186.546 180.264 185.498 180.097 184.491L194.225 182.749V180.449Z"
      fill="#E7E7E7" />
    <path
      d="M208.541 193.426C214.075 195.251 219.651 189.986 219.939 182.353C219.947 182.141 219.951 181.928 219.951 181.714C219.951 181.499 219.947 181.286 219.939 181.074C219.651 173.441 214.075 168.176 208.541 170.001L189.765 176.193C189.224 176.193 188.689 176.335 188.189 176.612C187.689 176.889 187.235 177.296 186.852 177.808C186.469 178.321 186.166 178.93 185.959 179.6C185.752 180.27 185.645 180.988 185.645 181.714C185.645 182.439 185.752 183.157 185.959 183.827C186.166 184.498 186.469 185.106 186.852 185.619C187.235 186.132 187.689 186.538 188.189 186.815C188.689 187.092 189.224 187.235 189.765 187.234L208.541 193.426Z"
      fill="#6E40F0" />
  </g>
  <defs>
    <linearGradient id="paint0_linear_86_3768" x1="177.306" y1="239.971" x2="180.04" y2="30.3707"
      gradientUnits="userSpaceOnUse">
      <stop stop-color="#074EE8" stop-opacity="0.2" />
      <stop offset="1" stop-color="#9479FD" stop-opacity="0.2" />
    </linearGradient>
    <clipPath id="clip0_86_3768">
      <rect width="349" height="358" fill="white" transform="translate(0 59)" />
    </clipPath>
  </defs>
</svg>