<svg width="350" height="392" viewBox="0 0 350 392" fill="none" xmlns="http://www.w3.org/2000/svg">
<path d="M269.941 15.726C235.422 -19.9211 68.4079 3.07707 87.1906 104.844C94.6188 145.091 10.0293 162.914 0.89178 214.085C-2.52851 233.239 0.891888 323.901 66.3774 328.501C87.5539 329.988 185.796 353.224 205.594 280.577C211.178 253.555 306.373 255.057 325.274 235.933C375.963 184.646 338.473 137.616 303.953 119.793C269.434 101.969 304.461 51.3732 269.941 15.726Z" fill="url(#paint0_linear_83_3390)"/>
<g clip-path="url(#clip0_83_3390)">
<path d="M170.639 314.307C178.971 316.846 184.384 323.106 182.729 328.286C181.074 333.467 172.979 335.607 164.644 333.065C161.301 332.094 158.244 330.356 155.729 327.994L120.566 316.797L126.295 300.786L160.352 313.524C163.796 312.978 167.323 313.247 170.639 314.307L170.639 314.307Z" fill="#FFB6B6"/>
<path d="M95.3108 196.825H95.3108C86.9265 195.855 79.2065 201.392 77.6446 209.5C72.0736 238.417 60.2413 300.949 61.7995 302.472C63.8281 304.454 139.562 326.258 139.562 326.258L148.353 307.758L98.3142 283.972L109.288 214.808C110.681 206.028 104.341 197.871 95.3108 196.825V196.825Z" fill="#E6E6E6"/>
<path d="M186.552 344.386C178.422 347.489 170.194 345.905 168.174 340.849C166.154 335.794 171.107 329.182 179.24 326.079C182.471 324.796 185.97 324.288 189.443 324.597L224.059 311.875L229.822 327.875L195.086 338.717C192.745 341.246 189.819 343.189 186.552 344.386H186.552Z" fill="#A0616A"/>
<path d="M236.471 207.062H236.471C244.769 205.543 252.853 210.561 254.969 218.547C262.516 247.033 278.622 308.647 277.172 310.269C275.284 312.38 201.221 339.107 201.221 339.107L191.178 321.226L239.468 294.208L223.762 225.921C221.768 217.252 227.533 208.697 236.471 207.062L236.471 207.062Z" fill="#E6E6E6"/>
<path d="M89.3715 200.979L93.4958 175.792L65.6569 164.71L61.5326 202.994L89.3715 200.979Z" fill="#FFB6B6"/>
<path d="M251.963 204.944L247.839 179.757L275.678 168.675L279.802 206.959L251.963 204.944Z" fill="#A0616A"/>
<path d="M82.3365 183.889C98.0153 183.889 110.726 171.47 110.726 156.15C110.726 140.83 98.0153 128.41 82.3365 128.41C66.6576 128.41 53.9474 140.83 53.9474 156.15C53.9474 171.47 66.6576 183.889 82.3365 183.889Z" fill="#FFB6B6"/>
<path d="M80.0708 118.856C80.8922 119.325 81.9926 118.616 82.256 117.723C82.5194 116.83 82.2125 115.881 81.9083 115.001L80.3765 110.568C79.2902 107.424 78.1372 104.17 75.7845 101.777C72.2334 98.1653 66.5899 97.2464 61.5096 97.9121C54.9855 98.7669 48.5484 102.219 45.5149 107.927C42.4814 113.635 43.7729 121.6 49.2542 125.161C41.4421 133.91 38.7189 143.661 39.1489 155.264C39.5788 166.868 52.5199 177.547 60.9591 185.721C62.8438 184.605 64.5571 179.373 63.5207 177.473C62.4844 175.572 63.9693 173.37 62.6857 171.62C61.4022 169.869 60.3284 172.657 61.626 170.916C62.4448 169.818 59.249 167.291 60.4661 166.634C66.3531 163.454 68.3111 156.284 72.0085 150.793C76.4682 144.171 84.1011 139.686 92.1787 138.942C96.6284 138.532 101.328 139.274 104.975 141.798C108.623 144.323 110.984 148.833 110.138 153.121C112.328 150.948 113.419 147.764 113.008 144.74C112.596 141.717 110.692 138.921 107.997 137.382C109.636 132.086 108.232 125.995 104.428 121.897C100.625 117.8 85.1945 118.498 79.6413 119.576" fill="#2F2E41"/>
<path d="M79.2084 139.103C71.8533 139.878 66.5428 146.104 62.0585 151.853C59.4738 155.166 56.7664 158.826 56.8313 162.992C56.8969 167.203 59.7789 170.816 61.1562 174.807C63.4075 181.332 61.2133 189.094 55.8542 193.564C61.1496 194.546 66.8741 190.667 67.7882 185.476C68.8524 179.434 64.165 173.603 64.7201 167.496C65.2092 162.116 69.5483 157.975 73.2373 153.952C76.9262 149.929 80.3907 144.591 78.6936 139.451" fill="#2F2E41"/>
<path d="M92.5878 196.756L60.4471 188.167L27.3134 201.381L13.1132 311.061L94.257 313.704V296.013C94.257 296.013 108.457 278.686 105.752 253.578L103.048 228.471L92.5878 196.756H92.5878Z" fill="#E6E6E6"/>
<path d="M107.443 241.355L43.8802 238.051L26.6372 285.954C26.6372 285.954 5.33694 314.695 1.95595 335.838C-1.42504 356.982 0.603548 386.714 0.603548 386.714H102.363L94.257 296.013C94.257 296.013 113.183 255.891 110.989 248.953C108.795 242.016 107.443 241.355 107.443 241.355L107.443 241.355Z" fill="#3F3D56"/>
<path d="M58.7566 188.497H43.204V244.658H58.7566V188.497Z" fill="#3F3D56"/>
<path d="M106.767 201.051H91.2141V247.301H106.767V201.051Z" fill="#3F3D56"/>
<path d="M247.395 202.042L279.535 193.452L312.669 206.667L326.869 316.347L245.725 318.99V301.299C245.725 301.299 237.425 283.212 245.387 259.194C253.164 235.739 236.935 233.757 236.935 233.757L247.395 202.042V202.042Z" fill="#E6E6E6"/>
<path d="M232.539 246.641L296.102 243.337L313.345 291.24C313.345 291.24 323.826 323.945 327.207 345.089C330.588 366.232 339.379 392 339.379 392H237.619L234.568 304.784L232.539 246.641L232.539 246.641Z" fill="#3F3D56"/>
<path d="M296.778 193.783H281.226V249.944H296.778V193.783Z" fill="#3F3D56"/>
<path d="M248.768 206.337H233.216V252.587H248.768V206.337Z" fill="#3F3D56"/>
<path d="M283.392 177.568C297.278 164 297.278 142.003 283.392 128.435C269.507 114.867 246.994 114.867 233.108 128.435C219.223 142.003 219.223 164 233.108 177.568C246.994 191.136 269.507 191.136 283.392 177.568Z" fill="#A0616A"/>
<path d="M293.224 171.849C293.224 171.849 276.022 151.678 269.141 153.359C262.26 155.04 266.56 157.561 266.56 157.561L249.358 139.071C249.358 139.071 235.596 134.029 222.694 149.997C222.694 149.997 214.953 136.55 222.694 128.986C230.435 121.422 233.015 122.263 234.736 118.06C236.456 113.858 248.498 110.496 248.498 110.496C248.498 110.496 247.807 104.448 251.593 107.472C255.379 110.496 264.833 110.496 264.833 110.496C264.833 110.496 264.887 107.135 268.734 110.496C272.581 113.858 276.882 112.177 276.882 112.177C276.882 112.177 276.882 117.994 279.892 118.027C282.903 118.06 288.063 113.858 288.923 117.22C289.784 120.582 295.804 122.263 296.665 132.348C297.525 142.433 293.224 171.849 293.224 171.849Z" fill="#2F2E41"/>
<path d="M161.353 223.704L188.882 274.555L185.109 276.505L157.58 225.654C157.18 224.916 157.469 224 158.224 223.609L159.261 223.074C160.016 222.683 160.954 222.966 161.353 223.704Z" fill="#3F3D56"/>
<path d="M207.216 293.773C200.213 292.008 192.885 295.132 189.371 301.309C184.97 309.044 179.943 315.389 181.626 300.266C183.479 283.618 173.484 270.172 181.339 266.112C189.195 262.051 197.306 274.391 210.073 285.563C221.906 295.918 215.082 295.754 207.216 293.773L207.216 293.773Z" fill="#3F3D56"/>
<path d="M166.677 233.991C174.617 230.449 182.923 231.58 185.229 236.518C187.535 241.455 182.968 248.328 175.026 251.87C171.873 253.327 168.409 254.026 164.923 253.907L131.089 268.5L124.419 252.84L158.481 240.117C160.673 237.465 163.484 235.364 166.677 233.991V233.991Z" fill="#FFB6B6"/>
<path d="M30.3365 195.628L30.3365 195.628C23.43 200.374 21.463 209.531 25.8375 216.587C41.4406 241.755 75.3413 296.039 77.5417 296.156C80.4062 296.309 151.698 263.158 151.698 263.158L145.608 243.648L92.0974 258.567L53.0282 199.905C48.0684 192.458 37.7749 190.518 30.3365 195.628V195.628V195.628Z" fill="#E6E6E6"/>
<path d="M170.061 312.086L261.512 264.817L272.739 285.554C282.423 303.443 275.422 325.648 257.115 335.11L232.003 348.089C213.696 357.552 190.971 350.711 181.287 332.823L170.061 312.086V312.086Z" fill="#074EE8"/>
<path d="M247.541 343.859C239.602 347.403 231.296 346.272 228.989 341.335C226.683 336.398 231.248 329.525 239.19 325.982C242.343 324.524 245.807 323.825 249.293 323.943L283.124 309.345L289.796 325.004L255.737 337.732C253.545 340.385 250.735 342.486 247.541 343.859H247.541Z" fill="#A0616A"/>
<path d="M316.348 204.093H316.349C324.733 203.123 332.453 208.66 334.015 216.768C339.586 245.685 351.418 308.217 349.86 309.74C347.831 311.722 272.097 333.526 272.097 333.526L263.307 315.026L313.345 291.24L302.371 222.076C300.978 213.296 307.318 205.138 316.348 204.093V204.093Z" fill="#E6E6E6"/>
</g>
<defs>
<linearGradient id="paint0_linear_83_3390" x1="201" y1="239.393" x2="203.387" y2="30.2893" gradientUnits="userSpaceOnUse">
<stop stop-color="#074EE8" stop-opacity="0.2"/>
<stop offset="1" stop-color="#9479FD" stop-opacity="0.2"/>
</linearGradient>
<clipPath id="clip0_83_3390">
<rect width="350" height="294.288" fill="white" transform="translate(0 97.7116)"/>
</clipPath>
</defs>
</svg>
